<svg xmlns="http://www.w3.org/2000/svg" width="21.97" height="17" viewBox="0 0 21.97 17">
  <path id="Tracé_2" data-name="Tracé 2" d="M11.3,9.22A4.92,4.92,0,0,0,13,5.5a5,5,0,0,0-10,0A4.92,4.92,0,0,0,4.7,9.22,8,8,0,0,0,0,16.5a1,1,0,0,0,2,0,6,6,0,0,1,12,0,1,1,0,0,0,2,0,8,8,0,0,0-4.7-7.28ZM8,8.5a3,3,0,1,1,2.121-.879A3,3,0,0,1,8,8.5Zm9.74.32A5,5,0,0,0,14,.5a1,1,0,0,0,0,2,3,3,0,0,1,1.5,5.59,1,1,0,0,0-.05,1.7l.39.26.13.07a7,7,0,0,1,4,6.38,1,1,0,0,0,2,0,9,9,0,0,0-4.23-7.68Z" transform="translate(0 -0.5)" fill="#f97316"/>
</svg>
