<svg xmlns="http://www.w3.org/2000/svg" width="22" height="22" viewBox="0 0 22 22">
  <path id="Tracé_4" data-name="Tracé 4" d="M19,0H3A3,3,0,0,0,0,3V19a3,3,0,0,0,3,3H19a3,3,0,0,0,3-3V3a3,3,0,0,0-3-3ZM7,20H3a1,1,0,0,1-1-1V17.82A3,3,0,0,0,3,18H7Zm0-4H3a1,1,0,0,1-1-1V13.82A3,3,0,0,0,3,14H7Zm0-4H3a1,1,0,0,1-1-1V3A1,1,0,0,1,3,2H7Zm6,8H9V14h4Zm0-8H9V2h4Zm7,7a1,1,0,0,1-1,1H15V18h4a3,3,0,0,0,1-.18Zm0-4a1,1,0,0,1-1,1H15V14h4a3,3,0,0,0,1-.18Zm0-4a1,1,0,0,1-1,1H15V2h4a1,1,0,0,1,1,1ZM17,6a1,1,0,1,0,.707.293A1,1,0,0,0,17,6ZM5,8a1,1,0,1,0-.707-.293A1,1,0,0,0,5,8Z" fill="#f97316"/>
</svg>
